# xmcd CD database file
# Copyright (C) 1993-1996 Ti Kan
#
# Track frame offsets:
# 150
# 10375
# 22807
# 36097
# 49290
# 61505
# 73897
# 85522
# 97745
# 110420
#
# Disc length: 1652 seconds
#
# Revision: 0
# Processed by: cddbd v1.5.1PL2 Copyright (c) Steve Scherf et al.
# Submitted via: inCDius 1.1b5
#
DISCID=6f06720a
DTITLE=George Morgan - George Morgan - American Originals
DYEAR=1998
DGENRE=Country
TTITLE0=Little Dutch Girl 
TTITLE1=Please Don't Let Me Love You
TTITLE2=Candy Kisses
TTITLE3=Room Full Of Roses
TTITLE4=In Your Eyes 
TTITLE5=Cry Baby Heart
TTITLE6=I'm In Love Again
TTITLE7=You're The Only Good Thing (That's Happened To Me
TTITLE8=Just Out Of Reach
TTITLE9=Almost
EXTD=
EXTT0=
EXTT1=
EXTT2=
EXTT3=
EXTT4=
EXTT5=
EXTT6=
EXTT7=
EXTT8=
EXTT9=
PLAYORDER=
